<?xml version="1.0" encoding="us-ascii" standalone="no"?><svg xmlns="http://www.w3.org/2000/svg" xmlns:xlink="http://www.w3.org/1999/xlink" contentStyleType="text/css" height="384px" preserveAspectRatio="none" style="width:395px;height:384px;background:#FFFFFF;" version="1.1" viewBox="0 0 395 384" width="395px" zoomAndPan="magnify"><defs/><g><!--class chunks--><g id="elem_chunks"><rect codeLine="7" fill="#F1F1F1" height="179.9063" id="chunks" rx="2.5" ry="2.5" style="stroke:#181818;stroke-width:0.5;" width="173" x="111" y="7"/><ellipse cx="168.75" cy="23" fill="#ADD1B2" rx="11" ry="11" style="stroke:#181818;stroke-width:1.0;"/><path d="M172.8643,29 L165.1445,29 L165.1445,16.6069 L172.8643,16.6069 L172.8643,18.7651 L167.5933,18.7651 L167.5933,21.438 L172.3662,21.438 L172.3662,23.5962 L167.5933,23.5962 L167.5933,26.8418 L172.8643,26.8418 Z " fill="#000000"/><text fill="#000000" font-family="sans-serif" font-size="14" lengthAdjust="spacing" textLength="49" x="189.25" y="28.291">chunks</text><line style="stroke:#181818;stroke-width:0.5;" x1="112" x2="283" y1="39" y2="39"/><ellipse cx="122" cy="52.7441" fill="#000000" rx="3" ry="3" style="stroke:#000000;stroke-width:1.0;"/><text fill="#000000" font-family="sans-serif" font-size="14" lengthAdjust="spacing" textLength="147" x="131" y="56.5352">id : UUID &#171;generated&#187;</text><line style="stroke:#181818;stroke-width:1.0;" x1="112" x2="283" y1="63.4883" y2="63.4883"/><text fill="#000000" font-family="sans-serif" font-size="14" lengthAdjust="spacing" textLength="87" x="117" y="81.0234">file_id : UUID</text><text fill="#000000" font-family="sans-serif" font-size="14" lengthAdjust="spacing" textLength="108" x="117" y="97.5117">server_id : UUID</text><text fill="#000000" font-family="sans-serif" font-size="14" lengthAdjust="spacing" textLength="109" x="117" y="114">index : INTEGER</text><text fill="#000000" font-family="sans-serif" font-size="14" lengthAdjust="spacing" textLength="97" x="117" y="130.4883">size : INTEGER</text><text fill="#000000" font-family="sans-serif" font-size="14" lengthAdjust="spacing" textLength="156" x="117" y="146.9766">is_uploaded: BOOLEAN</text><text fill="#000000" font-family="sans-serif" font-size="14" lengthAdjust="spacing" textLength="76" x="117" y="163.4648">hash: TEXT</text><text fill="#000000" font-family="sans-serif" font-size="14" lengthAdjust="spacing" textLength="159" x="117" y="179.9531">created_at: TIMESTAMP</text></g><!--class files--><g id="elem_files"><rect codeLine="19" fill="#F1F1F1" height="130.4414" id="files" rx="2.5" ry="2.5" style="stroke:#181818;stroke-width:0.5;" width="173" x="7" y="246.91"/><ellipse cx="75.25" cy="262.91" fill="#ADD1B2" rx="11" ry="11" style="stroke:#181818;stroke-width:1.0;"/><path d="M79.3643,268.91 L71.6445,268.91 L71.6445,256.5169 L79.3643,256.5169 L79.3643,258.6751 L74.0933,258.6751 L74.0933,261.348 L78.8662,261.348 L78.8662,263.5062 L74.0933,263.5062 L74.0933,266.7518 L79.3643,266.7518 Z " fill="#000000"/><text fill="#000000" font-family="sans-serif" font-size="14" lengthAdjust="spacing" textLength="28" x="95.75" y="268.201">files</text><line style="stroke:#181818;stroke-width:0.5;" x1="8" x2="179" y1="278.91" y2="278.91"/><ellipse cx="18" cy="292.6541" fill="#000000" rx="3" ry="3" style="stroke:#000000;stroke-width:1.0;"/><text fill="#000000" font-family="sans-serif" font-size="14" lengthAdjust="spacing" textLength="147" x="27" y="296.4452">id : UUID &#171;generated&#187;</text><line style="stroke:#181818;stroke-width:1.0;" x1="8" x2="179" y1="303.3983" y2="303.3983"/><text fill="#000000" font-family="sans-serif" font-size="14" lengthAdjust="spacing" textLength="85" x="13" y="320.9334">name : TEXT</text><text fill="#000000" font-family="sans-serif" font-size="14" lengthAdjust="spacing" textLength="97" x="13" y="337.4217">size : INTEGER</text><text fill="#000000" font-family="sans-serif" font-size="14" lengthAdjust="spacing" textLength="156" x="13" y="353.91">is_uploaded: BOOLEAN</text><text fill="#000000" font-family="sans-serif" font-size="14" lengthAdjust="spacing" textLength="159" x="13" y="370.3983">created_at: TIMESTAMP</text></g><!--class servers--><g id="elem_servers"><rect codeLine="28" fill="#F1F1F1" height="97.4648" id="servers" rx="2.5" ry="2.5" style="stroke:#181818;stroke-width:0.5;" width="173" x="215" y="263.4"/><ellipse cx="272.75" cy="279.4" fill="#ADD1B2" rx="11" ry="11" style="stroke:#181818;stroke-width:1.0;"/><path d="M276.8643,285.4 L269.1445,285.4 L269.1445,273.0069 L276.8643,273.0069 L276.8643,275.1651 L271.5933,275.1651 L271.5933,277.838 L276.3662,277.838 L276.3662,279.9962 L271.5933,279.9962 L271.5933,283.2418 L276.8643,283.2418 Z " fill="#000000"/><text fill="#000000" font-family="sans-serif" font-size="14" lengthAdjust="spacing" textLength="49" x="293.25" y="284.691">servers</text><line style="stroke:#181818;stroke-width:0.5;" x1="216" x2="387" y1="295.4" y2="295.4"/><ellipse cx="226" cy="309.1441" fill="#000000" rx="3" ry="3" style="stroke:#000000;stroke-width:1.0;"/><text fill="#000000" font-family="sans-serif" font-size="14" lengthAdjust="spacing" textLength="147" x="235" y="312.9352">id : UUID &#171;generated&#187;</text><line style="stroke:#181818;stroke-width:1.0;" x1="216" x2="387" y1="319.8883" y2="319.8883"/><text fill="#000000" font-family="sans-serif" font-size="14" lengthAdjust="spacing" textLength="66" x="221" y="337.4234">url : TEXT</text><text fill="#000000" font-family="sans-serif" font-size="14" lengthAdjust="spacing" textLength="159" x="221" y="353.9117">created_at: TIMESTAMP</text></g><!--link chunks to files--><g id="link_chunks_files"><path codeLine="35" d="M145.5,196.27 C145.5,196.27 145.5,237.57 145.5,237.57 " fill="none" id="chunks-files" style="stroke:#181818;stroke-width:1.0;stroke-dasharray:7.0,7.0;"/><line style="stroke:#181818;stroke-width:1.0;" x1="141.5" x2="149.5" y1="192.27" y2="192.27"/><line style="stroke:#181818;stroke-width:1.0;" x1="141.5" x2="149.5" y1="195.27" y2="195.27"/><line style="stroke:#181818;stroke-width:1.0;" x1="145.5" x2="145.5" y1="196.27" y2="188.27"/><line style="stroke:#181818;stroke-width:1.0;" x1="145.5" x2="151.5" y1="237.57" y2="245.57"/><line style="stroke:#181818;stroke-width:1.0;" x1="145.5" x2="139.5" y1="237.57" y2="245.57"/><line style="stroke:#181818;stroke-width:1.0;" x1="145.5" x2="145.5" y1="237.57" y2="245.57"/><ellipse cx="145.5" cy="231.57" fill="none" rx="4" ry="4" style="stroke:#181818;stroke-width:1.0;"/></g><!--link chunks to servers--><g id="link_chunks_servers"><path codeLine="36" d="M249.5,196.27 C249.5,196.27 249.5,254.11 249.5,254.11 " fill="none" id="chunks-servers" style="stroke:#181818;stroke-width:1.0;stroke-dasharray:7.0,7.0;"/><line style="stroke:#181818;stroke-width:1.0;" x1="245.5" x2="253.5" y1="192.27" y2="192.27"/><line style="stroke:#181818;stroke-width:1.0;" x1="245.5" x2="253.5" y1="195.27" y2="195.27"/><line style="stroke:#181818;stroke-width:1.0;" x1="249.5" x2="249.5" y1="196.27" y2="188.27"/><line style="stroke:#181818;stroke-width:1.0;" x1="249.5" x2="255.5" y1="254.11" y2="262.11"/><line style="stroke:#181818;stroke-width:1.0;" x1="249.5" x2="243.5" y1="254.11" y2="262.11"/><line style="stroke:#181818;stroke-width:1.0;" x1="249.5" x2="249.5" y1="254.11" y2="262.11"/><ellipse cx="249.5" cy="248.11" fill="none" rx="4" ry="4" style="stroke:#181818;stroke-width:1.0;"/></g><!--SRC=[ZP71QW8n48RlUOh1Yr3G1rX4i7Gf2rLBkq9lIvgCPZ2RB4bMQxNltcopjDYBUmdp_naotpyPWoA941I2RsnWuwG5EQ6HHSaFbYGqphvhh3qSAIZWPgTHWd3sw66B69ZVascuupLeCXXE3O9rGLd6q0GA9nW9rPgz7m7ta4euCu2x-7O6cqtn0BFP3Wqw7b3Ev_5gCed7bZHMlptHyEWEwAuiCX8_eYnMPVwOltHDz8bN1lcgRRJb4cK6z-lrKxvOHLjnhp8eyxSo2k6mcrtn4ArYcR-MY-Kp-_fBqB6a03_L87x3wuwa7p6KwoPAsaA2wUj1EAtJS3jm_p-NotHgpodiFw-V-Gq0]--></g></svg>