<?xml version="1.0" encoding="us-ascii" standalone="no"?><svg xmlns="http://www.w3.org/2000/svg" xmlns:xlink="http://www.w3.org/1999/xlink" contentStyleType="text/css" height="569px" preserveAspectRatio="none" style="width:640px;height:569px;background:#FFFFFF;" version="1.1" viewBox="0 0 640 569" width="640px" zoomAndPan="magnify"><defs/><g><rect fill="none" height="314.416" style="stroke:#000000;stroke-width:1.5;" width="624.5" x="10" y="127.7988"/><rect fill="none" height="46.6211" style="stroke:#000000;stroke-width:1.5;" width="230" x="20" y="181.4199"/><rect fill="none" height="134.5527" style="stroke:#000000;stroke-width:1.5;" width="465.5" x="159" y="271.3516"/><line style="stroke:#181818;stroke-width:0.5;stroke-dasharray:5.0,5.0;" x1="51" x2="51" y1="81.4883" y2="488.5254"/><line style="stroke:#181818;stroke-width:0.5;stroke-dasharray:5.0,5.0;" x1="204" x2="204" y1="81.4883" y2="488.5254"/><line style="stroke:#181818;stroke-width:0.5;stroke-dasharray:5.0,5.0;" x1="347" x2="347" y1="81.4883" y2="488.5254"/><line style="stroke:#181818;stroke-width:0.5;stroke-dasharray:5.0,5.0;" x1="433" x2="433" y1="81.4883" y2="488.5254"/><line style="stroke:#181818;stroke-width:0.5;stroke-dasharray:5.0,5.0;" x1="569.5" x2="569.5" y1="81.4883" y2="488.5254"/><text fill="#000000" font-family="sans-serif" font-size="14" lengthAdjust="spacing" textLength="37" x="30" y="78.5352">Actor</text><ellipse cx="51.5" cy="13.5" fill="#E2E2F0" rx="8" ry="8" style="stroke:#181818;stroke-width:0.5;"/><path d="M51.5,21.5 L51.5,48.5 M38.5,29.5 L64.5,29.5 M51.5,48.5 L38.5,63.5 M51.5,48.5 L64.5,63.5 " fill="none" style="stroke:#181818;stroke-width:0.5;"/><text fill="#000000" font-family="sans-serif" font-size="14" lengthAdjust="spacing" textLength="37" x="30" y="501.0605">Actor</text><ellipse cx="51.5" cy="512.5137" fill="#E2E2F0" rx="8" ry="8" style="stroke:#181818;stroke-width:0.5;"/><path d="M51.5,520.5137 L51.5,547.5137 M38.5,528.5137 L64.5,528.5137 M51.5,547.5137 L38.5,562.5137 M51.5,547.5137 L64.5,562.5137 " fill="none" style="stroke:#181818;stroke-width:0.5;"/><rect fill="#E2E2F0" height="30.4883" rx="2.5" ry="2.5" style="stroke:#181818;stroke-width:0.5;" width="71" x="169" y="50"/><text fill="#000000" font-family="sans-serif" font-size="14" lengthAdjust="spacing" textLength="57" x="176" y="70.5352">Gateway</text><rect fill="#E2E2F0" height="30.4883" rx="2.5" ry="2.5" style="stroke:#181818;stroke-width:0.5;" width="71" x="169" y="487.5254"/><text fill="#000000" font-family="sans-serif" font-size="14" lengthAdjust="spacing" textLength="57" x="176" y="508.0605">Gateway</text><text fill="#000000" font-family="sans-serif" font-size="14" lengthAdjust="spacing" textLength="79" x="305" y="78.5352">Gateway DB</text><path d="M329.5,29 C329.5,19 347.5,19 347.5,19 C347.5,19 365.5,19 365.5,29 L365.5,55 C365.5,65 347.5,65 347.5,65 C347.5,65 329.5,65 329.5,55 L329.5,29 " fill="#E2E2F0" style="stroke:#181818;stroke-width:1.5;"/><path d="M329.5,29 C329.5,39 347.5,39 347.5,39 C347.5,39 365.5,39 365.5,29 " fill="none" style="stroke:#181818;stroke-width:1.5;"/><text fill="#000000" font-family="sans-serif" font-size="14" lengthAdjust="spacing" textLength="79" x="305" y="501.0605">Gateway DB</text><path d="M329.5,514.0137 C329.5,504.0137 347.5,504.0137 347.5,504.0137 C347.5,504.0137 365.5,504.0137 365.5,514.0137 L365.5,540.0137 C365.5,550.0137 347.5,550.0137 347.5,550.0137 C347.5,550.0137 329.5,550.0137 329.5,540.0137 L329.5,514.0137 " fill="#E2E2F0" style="stroke:#181818;stroke-width:1.5;"/><path d="M329.5,514.0137 C329.5,524.0137 347.5,524.0137 347.5,524.0137 C347.5,524.0137 365.5,524.0137 365.5,514.0137 " fill="none" style="stroke:#181818;stroke-width:1.5;"/><rect fill="#E2E2F0" height="30.4883" rx="2.5" ry="2.5" style="stroke:#181818;stroke-width:0.5;" width="67" x="400" y="50"/><text fill="#000000" font-family="sans-serif" font-size="14" lengthAdjust="spacing" textLength="53" x="407" y="70.5352">Storage</text><rect fill="#E2E2F0" height="30.4883" rx="2.5" ry="2.5" style="stroke:#181818;stroke-width:0.5;" width="67" x="400" y="487.5254"/><text fill="#000000" font-family="sans-serif" font-size="14" lengthAdjust="spacing" textLength="53" x="407" y="508.0605">Storage</text><rect fill="#E2E2F0" height="30.4883" style="stroke:#181818;stroke-width:0.5;" width="86" x="528.5" y="46"/><rect fill="#E2E2F0" height="30.4883" style="stroke:#181818;stroke-width:0.5;" width="86" x="524.5" y="50"/><text fill="#000000" font-family="sans-serif" font-size="14" lengthAdjust="spacing" textLength="72" x="531.5" y="70.5352">FileSystem</text><rect fill="#E2E2F0" height="30.4883" style="stroke:#181818;stroke-width:0.5;" width="86" x="528.5" y="487.5254"/><rect fill="#E2E2F0" height="30.4883" style="stroke:#181818;stroke-width:0.5;" width="86" x="524.5" y="491.5254"/><text fill="#000000" font-family="sans-serif" font-size="14" lengthAdjust="spacing" textLength="72" x="531.5" y="512.0605">FileSystem</text><polygon fill="#181818" points="192.5,108.7988,202.5,112.7988,192.5,116.7988,196.5,112.7988" style="stroke:#181818;stroke-width:1.0;"/><line style="stroke:#181818;stroke-width:1.0;" x1="51.5" x2="198.5" y1="112.7988" y2="112.7988"/><text fill="#000000" font-family="sans-serif" font-size="13" lengthAdjust="spacing" textLength="129" x="58.5" y="108.0566">DELETE /v1/files/:id</text><path d="M10,127.7988 L161,127.7988 L161,135.1094 L151,145.1094 L10,145.1094 L10,127.7988 " fill="#EEEEEE" style="stroke:#000000;stroke-width:1.5;"/><rect fill="none" height="314.416" style="stroke:#000000;stroke-width:1.5;" width="624.5" x="10" y="127.7988"/><text fill="#000000" font-family="sans-serif" font-size="13" font-weight="bold" lengthAdjust="spacing" textLength="106" x="25" y="141.3672">SQL transaction</text><polygon fill="#181818" points="335.5,162.4199,345.5,166.4199,335.5,170.4199,339.5,166.4199" style="stroke:#181818;stroke-width:1.0;"/><line style="stroke:#181818;stroke-width:1.0;" x1="204.5" x2="341.5" y1="166.4199" y2="166.4199"/><text fill="#000000" font-family="sans-serif" font-size="13" lengthAdjust="spacing" textLength="52" x="211.5" y="161.6777">LockFile</text><path d="M20,181.4199 L184,181.4199 L184,188.7305 L174,198.7305 L20,198.7305 L20,181.4199 " fill="#EEEEEE" style="stroke:#000000;stroke-width:1.5;"/><rect fill="none" height="46.6211" style="stroke:#000000;stroke-width:1.5;" width="230" x="20" y="181.4199"/><text fill="#000000" font-family="sans-serif" font-size="13" font-weight="bold" lengthAdjust="spacing" textLength="119" x="35" y="194.9883">if file is not found</text><polygon fill="#181818" points="62.5,216.041,52.5,220.041,62.5,224.041,58.5,220.041" style="stroke:#181818;stroke-width:1.0;"/><line style="stroke:#181818;stroke-width:1.0;" x1="56.5" x2="203.5" y1="220.041" y2="220.041"/><text fill="#000000" font-family="sans-serif" font-size="13" lengthAdjust="spacing" textLength="85" x="68.5" y="215.2988">404 response</text><polygon fill="#181818" points="215.5,252.3516,205.5,256.3516,215.5,260.3516,211.5,256.3516" style="stroke:#181818;stroke-width:1.0;"/><polygon fill="#181818" points="335.5,252.3516,345.5,256.3516,335.5,260.3516,339.5,256.3516" style="stroke:#181818;stroke-width:1.0;"/><line style="stroke:#181818;stroke-width:1.0;" x1="209.5" x2="341.5" y1="256.3516" y2="256.3516"/><text fill="#000000" font-family="sans-serif" font-size="13" lengthAdjust="spacing" textLength="119" x="221.5" y="251.6094">GetChunksByFileID</text><path d="M159,271.3516 L233,271.3516 L233,278.6621 L223,288.6621 L159,288.6621 L159,271.3516 " fill="#EEEEEE" style="stroke:#000000;stroke-width:1.5;"/><rect fill="none" height="134.5527" style="stroke:#000000;stroke-width:1.5;" width="465.5" x="159" y="271.3516"/><text fill="#000000" font-family="sans-serif" font-size="13" font-weight="bold" lengthAdjust="spacing" textLength="29" x="174" y="284.9199">loop</text><text fill="#000000" font-family="sans-serif" font-size="11" font-weight="bold" lengthAdjust="spacing" textLength="189" x="248" y="283.9863">[chunks are iterated concurrently]</text><polygon fill="#181818" points="421.5,305.9727,431.5,309.9727,421.5,313.9727,425.5,309.9727" style="stroke:#181818;stroke-width:1.0;"/><line style="stroke:#181818;stroke-width:1.0;" x1="204.5" x2="427.5" y1="309.9727" y2="309.9727"/><text fill="#000000" font-family="sans-serif" font-size="13" lengthAdjust="spacing" textLength="172" x="211.5" y="305.2305">GET /v1/chunks/:chunk_id</text><polygon fill="#181818" points="557.5,335.2832,567.5,339.2832,557.5,343.2832,561.5,339.2832" style="stroke:#181818;stroke-width:1.0;"/><line style="stroke:#181818;stroke-width:1.0;" x1="433.5" x2="563.5" y1="339.2832" y2="339.2832"/><text fill="#000000" font-family="sans-serif" font-size="13" lengthAdjust="spacing" textLength="112" x="440.5" y="334.541">deletes chunk file</text><polygon fill="#181818" points="215.5,364.5938,205.5,368.5938,215.5,372.5938,211.5,368.5938" style="stroke:#181818;stroke-width:1.0;"/><line style="stroke:#181818;stroke-width:1.0;" x1="209.5" x2="432.5" y1="368.5938" y2="368.5938"/><text fill="#000000" font-family="sans-serif" font-size="13" lengthAdjust="spacing" textLength="57" x="221.5" y="363.8516">response</text><polygon fill="#181818" points="335.5,393.9043,345.5,397.9043,335.5,401.9043,339.5,397.9043" style="stroke:#181818;stroke-width:1.0;"/><line style="stroke:#181818;stroke-width:1.0;" x1="204.5" x2="341.5" y1="397.9043" y2="397.9043"/><text fill="#000000" font-family="sans-serif" font-size="13" lengthAdjust="spacing" textLength="81" x="211.5" y="393.1621">DeleteChunk</text><polygon fill="#181818" points="335.5,430.2148,345.5,434.2148,335.5,438.2148,339.5,434.2148" style="stroke:#181818;stroke-width:1.0;"/><line style="stroke:#181818;stroke-width:1.0;" x1="204.5" x2="341.5" y1="434.2148" y2="434.2148"/><text fill="#000000" font-family="sans-serif" font-size="13" lengthAdjust="spacing" textLength="62" x="211.5" y="429.4727">DeleteFile</text><polygon fill="#181818" points="62.5,466.5254,52.5,470.5254,62.5,474.5254,58.5,470.5254" style="stroke:#181818;stroke-width:1.0;"/><line style="stroke:#181818;stroke-width:1.0;" x1="56.5" x2="203.5" y1="470.5254" y2="470.5254"/><text fill="#000000" font-family="sans-serif" font-size="13" lengthAdjust="spacing" textLength="87" x="68.5" y="465.7832">200, file JSON</text><!--SRC=[PP3DJiCm48JlVefLpw0Kr5E4a2W95QW2eVHUkSucM0rsvDrGvUtn3wLfwqiY-vkPtP6AhODqdYR_uKY2WT29NZhMIlVICAmauq6EKwOzY5got4d2S3Cx8iLozaziwzsPJUMJP8jJ6sAXRDUXOcqD0Rpe3gkH6B-FH4D2Y30Ht3vwJyYXADVbfeJivovhF4vPhclHEZlqK7skWPqq9AEX21vU4vL-6YzUMxKF8UafYdG3mGSqWR4CZHrCBOup9dN8ps4nNu13wlsaIOz_e8SU9XahvEUlmUnfEOQerq94ghEs1nKVG3gVn-XyQpKeQzJW71hknejWuk1NRkAsIPlbyRlLfo4zvTc6F5jZXuoKSk9U5rIiy6oBwvAAQ19tkDppYefb1k3Kb7-xdyzlKgjlrSVxBm00]--></g></svg>