<?xml version="1.0" encoding="us-ascii" standalone="no"?><svg xmlns="http://www.w3.org/2000/svg" xmlns:xlink="http://www.w3.org/1999/xlink" contentStyleType="text/css" height="569px" preserveAspectRatio="none" style="width:652px;height:569px;background:#FFFFFF;" version="1.1" viewBox="0 0 652 569" width="652px" zoomAndPan="magnify"><defs/><g><rect fill="none" height="46.6211" style="stroke:#000000;stroke-width:1.5;" width="263" x="20" y="157.1094"/><rect fill="none" height="195.1738" style="stroke:#000000;stroke-width:1.5;" width="636.5" x="10" y="247.041"/><rect fill="none" height="46.6211" style="stroke:#000000;stroke-width:1.5;" width="263" x="20" y="359.2832"/><line style="stroke:#181818;stroke-width:0.5;stroke-dasharray:5.0,5.0;" x1="51" x2="51" y1="81.4883" y2="488.5254"/><line style="stroke:#181818;stroke-width:0.5;stroke-dasharray:5.0,5.0;" x1="237" x2="237" y1="81.4883" y2="488.5254"/><line style="stroke:#181818;stroke-width:0.5;stroke-dasharray:5.0,5.0;" x1="380" x2="380" y1="81.4883" y2="488.5254"/><line style="stroke:#181818;stroke-width:0.5;stroke-dasharray:5.0,5.0;" x1="466" x2="466" y1="81.4883" y2="488.5254"/><line style="stroke:#181818;stroke-width:0.5;stroke-dasharray:5.0,5.0;" x1="591.5" x2="591.5" y1="81.4883" y2="488.5254"/><text fill="#000000" font-family="sans-serif" font-size="14" lengthAdjust="spacing" textLength="37" x="30" y="78.5352">Actor</text><ellipse cx="51.5" cy="13.5" fill="#E2E2F0" rx="8" ry="8" style="stroke:#181818;stroke-width:0.5;"/><path d="M51.5,21.5 L51.5,48.5 M38.5,29.5 L64.5,29.5 M51.5,48.5 L38.5,63.5 M51.5,48.5 L64.5,63.5 " fill="none" style="stroke:#181818;stroke-width:0.5;"/><text fill="#000000" font-family="sans-serif" font-size="14" lengthAdjust="spacing" textLength="37" x="30" y="501.0605">Actor</text><ellipse cx="51.5" cy="512.5137" fill="#E2E2F0" rx="8" ry="8" style="stroke:#181818;stroke-width:0.5;"/><path d="M51.5,520.5137 L51.5,547.5137 M38.5,528.5137 L64.5,528.5137 M51.5,547.5137 L38.5,562.5137 M51.5,547.5137 L64.5,562.5137 " fill="none" style="stroke:#181818;stroke-width:0.5;"/><rect fill="#E2E2F0" height="30.4883" rx="2.5" ry="2.5" style="stroke:#181818;stroke-width:0.5;" width="71" x="202" y="50"/><text fill="#000000" font-family="sans-serif" font-size="14" lengthAdjust="spacing" textLength="57" x="209" y="70.5352">Gateway</text><rect fill="#E2E2F0" height="30.4883" rx="2.5" ry="2.5" style="stroke:#181818;stroke-width:0.5;" width="71" x="202" y="487.5254"/><text fill="#000000" font-family="sans-serif" font-size="14" lengthAdjust="spacing" textLength="57" x="209" y="508.0605">Gateway</text><text fill="#000000" font-family="sans-serif" font-size="14" lengthAdjust="spacing" textLength="79" x="338" y="78.5352">Gateway DB</text><path d="M362.5,29 C362.5,19 380.5,19 380.5,19 C380.5,19 398.5,19 398.5,29 L398.5,55 C398.5,65 380.5,65 380.5,65 C380.5,65 362.5,65 362.5,55 L362.5,29 " fill="#E2E2F0" style="stroke:#181818;stroke-width:1.5;"/><path d="M362.5,29 C362.5,39 380.5,39 380.5,39 C380.5,39 398.5,39 398.5,29 " fill="none" style="stroke:#181818;stroke-width:1.5;"/><text fill="#000000" font-family="sans-serif" font-size="14" lengthAdjust="spacing" textLength="79" x="338" y="501.0605">Gateway DB</text><path d="M362.5,514.0137 C362.5,504.0137 380.5,504.0137 380.5,504.0137 C380.5,504.0137 398.5,504.0137 398.5,514.0137 L398.5,540.0137 C398.5,550.0137 380.5,550.0137 380.5,550.0137 C380.5,550.0137 362.5,550.0137 362.5,540.0137 L362.5,514.0137 " fill="#E2E2F0" style="stroke:#181818;stroke-width:1.5;"/><path d="M362.5,514.0137 C362.5,524.0137 380.5,524.0137 380.5,524.0137 C380.5,524.0137 398.5,524.0137 398.5,514.0137 " fill="none" style="stroke:#181818;stroke-width:1.5;"/><rect fill="#E2E2F0" height="30.4883" rx="2.5" ry="2.5" style="stroke:#181818;stroke-width:0.5;" width="67" x="433" y="50"/><text fill="#000000" font-family="sans-serif" font-size="14" lengthAdjust="spacing" textLength="53" x="440" y="70.5352">Storage</text><rect fill="#E2E2F0" height="30.4883" rx="2.5" ry="2.5" style="stroke:#181818;stroke-width:0.5;" width="67" x="433" y="487.5254"/><text fill="#000000" font-family="sans-serif" font-size="14" lengthAdjust="spacing" textLength="53" x="440" y="508.0605">Storage</text><rect fill="#E2E2F0" height="30.4883" style="stroke:#181818;stroke-width:0.5;" width="86" x="550.5" y="46"/><rect fill="#E2E2F0" height="30.4883" style="stroke:#181818;stroke-width:0.5;" width="86" x="546.5" y="50"/><text fill="#000000" font-family="sans-serif" font-size="14" lengthAdjust="spacing" textLength="72" x="553.5" y="70.5352">FileSystem</text><rect fill="#E2E2F0" height="30.4883" style="stroke:#181818;stroke-width:0.5;" width="86" x="550.5" y="487.5254"/><rect fill="#E2E2F0" height="30.4883" style="stroke:#181818;stroke-width:0.5;" width="86" x="546.5" y="491.5254"/><text fill="#000000" font-family="sans-serif" font-size="14" lengthAdjust="spacing" textLength="72" x="553.5" y="512.0605">FileSystem</text><polygon fill="#181818" points="225.5,108.7988,235.5,112.7988,225.5,116.7988,229.5,112.7988" style="stroke:#181818;stroke-width:1.0;"/><line style="stroke:#181818;stroke-width:1.0;" x1="51.5" x2="231.5" y1="112.7988" y2="112.7988"/><text fill="#000000" font-family="sans-serif" font-size="13" lengthAdjust="spacing" textLength="162" x="58.5" y="108.0566">GET /v1/files/:id/content</text><polygon fill="#181818" points="248.5,138.1094,238.5,142.1094,248.5,146.1094,244.5,142.1094" style="stroke:#181818;stroke-width:1.0;"/><polygon fill="#181818" points="368.5,138.1094,378.5,142.1094,368.5,146.1094,372.5,142.1094" style="stroke:#181818;stroke-width:1.0;"/><line style="stroke:#181818;stroke-width:1.0;" x1="242.5" x2="374.5" y1="142.1094" y2="142.1094"/><text fill="#000000" font-family="sans-serif" font-size="13" lengthAdjust="spacing" textLength="102" x="254.5" y="137.3672">GetUploadedFIle</text><path d="M20,157.1094 L184,157.1094 L184,164.4199 L174,174.4199 L20,174.4199 L20,157.1094 " fill="#EEEEEE" style="stroke:#000000;stroke-width:1.5;"/><rect fill="none" height="46.6211" style="stroke:#000000;stroke-width:1.5;" width="263" x="20" y="157.1094"/><text fill="#000000" font-family="sans-serif" font-size="13" font-weight="bold" lengthAdjust="spacing" textLength="119" x="35" y="170.6777">if file is not found</text><polygon fill="#181818" points="62.5,191.7305,52.5,195.7305,62.5,199.7305,58.5,195.7305" style="stroke:#181818;stroke-width:1.0;"/><line style="stroke:#181818;stroke-width:1.0;" x1="56.5" x2="236.5" y1="195.7305" y2="195.7305"/><text fill="#000000" font-family="sans-serif" font-size="13" lengthAdjust="spacing" textLength="85" x="68.5" y="190.9883">404 response</text><polygon fill="#181818" points="248.5,228.041,238.5,232.041,248.5,236.041,244.5,232.041" style="stroke:#181818;stroke-width:1.0;"/><polygon fill="#181818" points="368.5,228.041,378.5,232.041,368.5,236.041,372.5,232.041" style="stroke:#181818;stroke-width:1.0;"/><line style="stroke:#181818;stroke-width:1.0;" x1="242.5" x2="374.5" y1="232.041" y2="232.041"/><text fill="#000000" font-family="sans-serif" font-size="13" lengthAdjust="spacing" textLength="119" x="254.5" y="227.2988">GetChunksByFileID</text><path d="M10,247.041 L84,247.041 L84,254.3516 L74,264.3516 L10,264.3516 L10,247.041 " fill="#EEEEEE" style="stroke:#000000;stroke-width:1.5;"/><rect fill="none" height="195.1738" style="stroke:#000000;stroke-width:1.5;" width="636.5" x="10" y="247.041"/><text fill="#000000" font-family="sans-serif" font-size="13" font-weight="bold" lengthAdjust="spacing" textLength="29" x="25" y="260.6094">loop</text><text fill="#000000" font-family="sans-serif" font-size="11" font-weight="bold" lengthAdjust="spacing" textLength="198" x="99" y="259.6758">[chunks are requested sequentially]</text><polygon fill="#181818" points="454.5,281.6621,464.5,285.6621,454.5,289.6621,458.5,285.6621" style="stroke:#181818;stroke-width:1.0;"/><line style="stroke:#181818;stroke-width:1.0;" x1="237.5" x2="460.5" y1="285.6621" y2="285.6621"/><text fill="#000000" font-family="sans-serif" font-size="13" lengthAdjust="spacing" textLength="172" x="244.5" y="280.9199">GET /v1/chunks/:chunk_id</text><polygon fill="#181818" points="477.5,310.9727,467.5,314.9727,477.5,318.9727,473.5,314.9727" style="stroke:#181818;stroke-width:1.0;"/><polygon fill="#181818" points="579.5,310.9727,589.5,314.9727,579.5,318.9727,583.5,314.9727" style="stroke:#181818;stroke-width:1.0;"/><line style="stroke:#181818;stroke-width:1.0;" x1="471.5" x2="585.5" y1="314.9727" y2="314.9727"/><text fill="#000000" font-family="sans-serif" font-size="13" lengthAdjust="spacing" textLength="101" x="483.5" y="310.2305">reads chunk file</text><polygon fill="#181818" points="248.5,340.2832,238.5,344.2832,248.5,348.2832,244.5,344.2832" style="stroke:#181818;stroke-width:1.0;"/><line style="stroke:#181818;stroke-width:1.0;" x1="242.5" x2="465.5" y1="344.2832" y2="344.2832"/><text fill="#000000" font-family="sans-serif" font-size="13" lengthAdjust="spacing" textLength="57" x="254.5" y="339.541">response</text><path d="M20,359.2832 L176,359.2832 L176,366.5938 L166,376.5938 L20,376.5938 L20,359.2832 " fill="#EEEEEE" style="stroke:#000000;stroke-width:1.5;"/><rect fill="none" height="46.6211" style="stroke:#000000;stroke-width:1.5;" width="263" x="20" y="359.2832"/><text fill="#000000" font-family="sans-serif" font-size="13" font-weight="bold" lengthAdjust="spacing" textLength="111" x="35" y="372.8516">if hash is invalid</text><polygon fill="#181818" points="62.5,393.9043,52.5,397.9043,62.5,401.9043,58.5,397.9043" style="stroke:#181818;stroke-width:1.0;"/><line style="stroke:#181818;stroke-width:1.0;" x1="56.5" x2="236.5" y1="397.9043" y2="397.9043"/><text fill="#000000" font-family="sans-serif" font-size="13" lengthAdjust="spacing" textLength="85" x="68.5" y="393.1621">500 response</text><polygon fill="#181818" points="248.5,430.2148,238.5,434.2148,248.5,438.2148,244.5,434.2148" style="stroke:#181818;stroke-width:1.0;"/><polygon fill="#181818" points="368.5,430.2148,378.5,434.2148,368.5,438.2148,372.5,434.2148" style="stroke:#181818;stroke-width:1.0;"/><line style="stroke:#181818;stroke-width:1.0;" x1="242.5" x2="374.5" y1="434.2148" y2="434.2148"/><text fill="#000000" font-family="sans-serif" font-size="13" lengthAdjust="spacing" textLength="119" x="254.5" y="429.4727">GetChunksByFileID</text><polygon fill="#181818" points="62.5,466.5254,52.5,470.5254,62.5,474.5254,58.5,470.5254" style="stroke:#181818;stroke-width:1.0;"/><line style="stroke:#181818;stroke-width:1.0;" x1="56.5" x2="236.5" y1="470.5254" y2="470.5254"/><text fill="#000000" font-family="sans-serif" font-size="13" lengthAdjust="spacing" textLength="147" x="68.5" y="465.7832">200, file binary content</text><!--SRC=[VP5DJyCm38Rl-HNMpg0MD2uLGcACJJiFpfFNk5j4I4hiRkg_9-d7w42YbqRfu_V3nL9yWFvvdfpJWmmDKr0r1Z6bgT49h57eZEsKEPoLHi4zCgMRsOWi5xCBiTFxAvbjTC83JMLOLEcjfLACTmomCfQsBGjzZaJ5IgL0SFiK9Q60zUiRPAUxh8eePuNHMUcTa1CLFpzsL3HE8CbxRJrgqgkD9NK8lgd1L90cmJ0uBr3vnccLlE9q74vM1SppEGJYEcOYHH7uA_roRDm7BzgKUBDKodfVGzbT0WQAuryDnI8QE9sS6BIsdJYnJChqWrdHlNUcJnI9P5fn10EXvbw_opy2urOkQJk3iUaH-PYQ6dT2EwZ-xlgGvzVJzBEG_piFYncK8dAVvpVzTlV6OMXX-3FV]--></g></svg>