<?xml version="1.0" encoding="us-ascii" standalone="no"?><svg xmlns="http://www.w3.org/2000/svg" xmlns:xlink="http://www.w3.org/1999/xlink" contentStyleType="text/css" height="602px" preserveAspectRatio="none" style="width:616px;height:602px;background:#FFFFFF;" version="1.1" viewBox="0 0 616 602" width="616px" zoomAndPan="magnify"><defs/><g><rect fill="none" height="169.8633" style="stroke:#000000;stroke-width:1.5;" width="309" x="65" y="127.7988"/><rect fill="none" height="134.5527" style="stroke:#000000;stroke-width:1.5;" width="513.5" x="97" y="311.6621"/><line style="stroke:#181818;stroke-width:0.5;stroke-dasharray:5.0,5.0;" x1="26" x2="26" y1="81.4883" y2="521.8359"/><line style="stroke:#181818;stroke-width:0.5;stroke-dasharray:5.0,5.0;" x1="142" x2="142" y1="81.4883" y2="521.8359"/><line style="stroke:#181818;stroke-width:0.5;stroke-dasharray:5.0,5.0;" x1="321" x2="321" y1="81.4883" y2="521.8359"/><line style="stroke:#181818;stroke-width:0.5;stroke-dasharray:5.0,5.0;" x1="407" x2="407" y1="81.4883" y2="521.8359"/><line style="stroke:#181818;stroke-width:0.5;stroke-dasharray:5.0,5.0;" x1="555.5" x2="555.5" y1="81.4883" y2="521.8359"/><text fill="#000000" font-family="sans-serif" font-size="14" lengthAdjust="spacing" textLength="37" x="5" y="78.5352">Actor</text><ellipse cx="26.5" cy="13.5" fill="#E2E2F0" rx="8" ry="8" style="stroke:#181818;stroke-width:0.5;"/><path d="M26.5,21.5 L26.5,48.5 M13.5,29.5 L39.5,29.5 M26.5,48.5 L13.5,63.5 M26.5,48.5 L39.5,63.5 " fill="none" style="stroke:#181818;stroke-width:0.5;"/><text fill="#000000" font-family="sans-serif" font-size="14" lengthAdjust="spacing" textLength="37" x="5" y="534.3711">Actor</text><ellipse cx="26.5" cy="545.8242" fill="#E2E2F0" rx="8" ry="8" style="stroke:#181818;stroke-width:0.5;"/><path d="M26.5,553.8242 L26.5,580.8242 M13.5,561.8242 L39.5,561.8242 M26.5,580.8242 L13.5,595.8242 M26.5,580.8242 L39.5,595.8242 " fill="none" style="stroke:#181818;stroke-width:0.5;"/><rect fill="#E2E2F0" height="30.4883" rx="2.5" ry="2.5" style="stroke:#181818;stroke-width:0.5;" width="71" x="107" y="50"/><text fill="#000000" font-family="sans-serif" font-size="14" lengthAdjust="spacing" textLength="57" x="114" y="70.5352">Gateway</text><rect fill="#E2E2F0" height="30.4883" rx="2.5" ry="2.5" style="stroke:#181818;stroke-width:0.5;" width="71" x="107" y="520.8359"/><text fill="#000000" font-family="sans-serif" font-size="14" lengthAdjust="spacing" textLength="57" x="114" y="541.3711">Gateway</text><text fill="#000000" font-family="sans-serif" font-size="14" lengthAdjust="spacing" textLength="79" x="279" y="78.5352">Gateway DB</text><path d="M303.5,29 C303.5,19 321.5,19 321.5,19 C321.5,19 339.5,19 339.5,29 L339.5,55 C339.5,65 321.5,65 321.5,65 C321.5,65 303.5,65 303.5,55 L303.5,29 " fill="#E2E2F0" style="stroke:#181818;stroke-width:1.5;"/><path d="M303.5,29 C303.5,39 321.5,39 321.5,39 C321.5,39 339.5,39 339.5,29 " fill="none" style="stroke:#181818;stroke-width:1.5;"/><text fill="#000000" font-family="sans-serif" font-size="14" lengthAdjust="spacing" textLength="79" x="279" y="534.3711">Gateway DB</text><path d="M303.5,547.3242 C303.5,537.3242 321.5,537.3242 321.5,537.3242 C321.5,537.3242 339.5,537.3242 339.5,547.3242 L339.5,573.3242 C339.5,583.3242 321.5,583.3242 321.5,583.3242 C321.5,583.3242 303.5,583.3242 303.5,573.3242 L303.5,547.3242 " fill="#E2E2F0" style="stroke:#181818;stroke-width:1.5;"/><path d="M303.5,547.3242 C303.5,557.3242 321.5,557.3242 321.5,557.3242 C321.5,557.3242 339.5,557.3242 339.5,547.3242 " fill="none" style="stroke:#181818;stroke-width:1.5;"/><rect fill="#E2E2F0" height="30.4883" rx="2.5" ry="2.5" style="stroke:#181818;stroke-width:0.5;" width="67" x="374" y="50"/><text fill="#000000" font-family="sans-serif" font-size="14" lengthAdjust="spacing" textLength="53" x="381" y="70.5352">Storage</text><rect fill="#E2E2F0" height="30.4883" rx="2.5" ry="2.5" style="stroke:#181818;stroke-width:0.5;" width="67" x="374" y="520.8359"/><text fill="#000000" font-family="sans-serif" font-size="14" lengthAdjust="spacing" textLength="53" x="381" y="541.3711">Storage</text><rect fill="#E2E2F0" height="30.4883" style="stroke:#181818;stroke-width:0.5;" width="86" x="514.5" y="46"/><rect fill="#E2E2F0" height="30.4883" style="stroke:#181818;stroke-width:0.5;" width="86" x="510.5" y="50"/><text fill="#000000" font-family="sans-serif" font-size="14" lengthAdjust="spacing" textLength="72" x="517.5" y="70.5352">FileSystem</text><rect fill="#E2E2F0" height="30.4883" style="stroke:#181818;stroke-width:0.5;" width="86" x="514.5" y="520.8359"/><rect fill="#E2E2F0" height="30.4883" style="stroke:#181818;stroke-width:0.5;" width="86" x="510.5" y="524.8359"/><text fill="#000000" font-family="sans-serif" font-size="14" lengthAdjust="spacing" textLength="72" x="517.5" y="545.3711">FileSystem</text><polygon fill="#181818" points="130.5,108.7988,140.5,112.7988,130.5,116.7988,134.5,112.7988" style="stroke:#181818;stroke-width:1.0;"/><line style="stroke:#181818;stroke-width:1.0;" x1="26.5" x2="136.5" y1="112.7988" y2="112.7988"/><text fill="#000000" font-family="sans-serif" font-size="13" lengthAdjust="spacing" textLength="92" x="33.5" y="108.0566">POST /v1/files</text><path d="M65,127.7988 L210,127.7988 L210,135.1094 L200,145.1094 L65,145.1094 L65,127.7988 " fill="#EEEEEE" style="stroke:#000000;stroke-width:1.5;"/><rect fill="none" height="169.8633" style="stroke:#000000;stroke-width:1.5;" width="309" x="65" y="127.7988"/><text fill="#000000" font-family="sans-serif" font-size="13" font-weight="bold" lengthAdjust="spacing" textLength="100" x="80" y="141.3672">sql transaction</text><polygon fill="#181818" points="309.5,162.4199,319.5,166.4199,309.5,170.4199,313.5,166.4199" style="stroke:#181818;stroke-width:1.0;"/><line style="stroke:#181818;stroke-width:1.0;" x1="142.5" x2="315.5" y1="166.4199" y2="166.4199"/><text fill="#000000" font-family="sans-serif" font-size="13" lengthAdjust="spacing" textLength="75" x="149.5" y="161.6777">LockServers</text><polygon fill="#181818" points="309.5,191.7305,319.5,195.7305,309.5,199.7305,313.5,195.7305" style="stroke:#181818;stroke-width:1.0;"/><line style="stroke:#181818;stroke-width:1.0;" x1="142.5" x2="315.5" y1="195.7305" y2="195.7305"/><text fill="#000000" font-family="sans-serif" font-size="13" lengthAdjust="spacing" textLength="111" x="149.5" y="190.9883">GetServersUsages</text><path d="M75,208.7305 L75,233.7305 L209,233.7305 L209,218.7305 L199,208.7305 L75,208.7305 " fill="#FEFFDD" style="stroke:#181818;stroke-width:0.5;"/><path d="M199,208.7305 L199,218.7305 L209,218.7305 L199,208.7305 " fill="#FEFFDD" style="stroke:#181818;stroke-width:0.5;"/><text fill="#000000" font-family="sans-serif" font-size="13" lengthAdjust="spacing" textLength="113" x="81" y="226.2988">calculates chunks</text><polygon fill="#181818" points="309.5,256.3516,319.5,260.3516,309.5,264.3516,313.5,260.3516" style="stroke:#181818;stroke-width:1.0;"/><line style="stroke:#181818;stroke-width:1.0;" x1="142.5" x2="315.5" y1="260.3516" y2="260.3516"/><text fill="#000000" font-family="sans-serif" font-size="13" lengthAdjust="spacing" textLength="54" x="149.5" y="255.6094">StoreFile</text><polygon fill="#181818" points="309.5,285.6621,319.5,289.6621,309.5,293.6621,313.5,289.6621" style="stroke:#181818;stroke-width:1.0;"/><line style="stroke:#181818;stroke-width:1.0;" x1="142.5" x2="315.5" y1="289.6621" y2="289.6621"/><text fill="#000000" font-family="sans-serif" font-size="13" lengthAdjust="spacing" textLength="80" x="149.5" y="284.9199">StoreChunks</text><path d="M97,311.6621 L171,311.6621 L171,318.9727 L161,328.9727 L97,328.9727 L97,311.6621 " fill="#EEEEEE" style="stroke:#000000;stroke-width:1.5;"/><rect fill="none" height="134.5527" style="stroke:#000000;stroke-width:1.5;" width="513.5" x="97" y="311.6621"/><text fill="#000000" font-family="sans-serif" font-size="13" font-weight="bold" lengthAdjust="spacing" textLength="29" x="112" y="325.2305">loop</text><text fill="#000000" font-family="sans-serif" font-size="11" font-weight="bold" lengthAdjust="spacing" textLength="203" x="186" y="324.2969">[chunks are processed concurrently]</text><polygon fill="#181818" points="395.5,346.2832,405.5,350.2832,395.5,354.2832,399.5,350.2832" style="stroke:#181818;stroke-width:1.0;"/><line style="stroke:#181818;stroke-width:1.0;" x1="142.5" x2="401.5" y1="350.2832" y2="350.2832"/><text fill="#000000" font-family="sans-serif" font-size="13" lengthAdjust="spacing" textLength="111" x="149.5" y="345.541">POST /v1/chunks</text><polygon fill="#181818" points="543.5,375.5938,553.5,379.5938,543.5,383.5938,547.5,379.5938" style="stroke:#181818;stroke-width:1.0;"/><line style="stroke:#181818;stroke-width:1.0;" x1="407.5" x2="549.5" y1="379.5938" y2="379.5938"/><text fill="#000000" font-family="sans-serif" font-size="13" lengthAdjust="spacing" textLength="124" x="414.5" y="374.8516">stores chunk as file</text><polygon fill="#181818" points="153.5,404.9043,143.5,408.9043,153.5,412.9043,149.5,408.9043" style="stroke:#181818;stroke-width:1.0;"/><line style="stroke:#181818;stroke-width:1.0;" x1="147.5" x2="406.5" y1="408.9043" y2="408.9043"/><text fill="#000000" font-family="sans-serif" font-size="13" lengthAdjust="spacing" textLength="57" x="159.5" y="404.1621">response</text><polygon fill="#181818" points="309.5,434.2148,319.5,438.2148,309.5,442.2148,313.5,438.2148" style="stroke:#181818;stroke-width:1.0;"/><line style="stroke:#181818;stroke-width:1.0;" x1="142.5" x2="315.5" y1="438.2148" y2="438.2148"/><text fill="#000000" font-family="sans-serif" font-size="13" lengthAdjust="spacing" textLength="155" x="149.5" y="433.4727">UpdateChunkIsUploaded</text><polygon fill="#181818" points="309.5,470.5254,319.5,474.5254,309.5,478.5254,313.5,474.5254" style="stroke:#181818;stroke-width:1.0;"/><line style="stroke:#181818;stroke-width:1.0;" x1="142.5" x2="315.5" y1="474.5254" y2="474.5254"/><text fill="#000000" font-family="sans-serif" font-size="13" lengthAdjust="spacing" textLength="136" x="149.5" y="469.7832">UpdateFileIsUploaded</text><polygon fill="#181818" points="37.5,499.8359,27.5,503.8359,37.5,507.8359,33.5,503.8359" style="stroke:#181818;stroke-width:1.0;"/><line style="stroke:#181818;stroke-width:1.0;" x1="31.5" x2="141.5" y1="503.8359" y2="503.8359"/><text fill="#000000" font-family="sans-serif" font-size="13" lengthAdjust="spacing" textLength="55" x="43.5" y="499.0938">file JSON</text><!--SRC=[TP7DQWCn38JlVWgHUmczvb3e3mqjfIbiSowALqcMkBPhQHFozfMzc-32rYVZ-JGQoMWb91ZEVNNF1nbwfcGY9kbi5z4BB57eXEUQsPrCYu8RPCelimloz32x4b_jvezDevrmHxKDYx71ERBI1Sy0pvsZvin2trTaoyRaH71pfvwmW8zLymdpu-rygp2RNGfz1Fvn80azOx4okLZfKgCvjEmjs4D3wKY99zGboIYkMJCEY0z24FHHiGLOTBPtEYU3tVV-C6MJHwGyn7_Qur19lZN6XH17Ay1445Emn4mjsE1jdn9vSUVAYQKUlmgXWifRLfbpbp5XMTybpC2K3IeGTTrJ8TTHltL8-SBhw0Asr9QuKroUjC86f7pMeZI6rsRr_Wi0]--></g></svg>