<?xml version="1.0" encoding="us-ascii" standalone="no"?><svg xmlns="http://www.w3.org/2000/svg" xmlns:xlink="http://www.w3.org/1999/xlink" contentStyleType="text/css" height="270px" preserveAspectRatio="none" style="width:298px;height:270px;background:#FFFFFF;" version="1.1" viewBox="0 0 298 270" width="298px" zoomAndPan="magnify"><defs/><g><line style="stroke:#181818;stroke-width:0.5;stroke-dasharray:5.0,5.0;" x1="26" x2="26" y1="81.4883" y2="189.4199"/><line style="stroke:#181818;stroke-width:0.5;stroke-dasharray:5.0,5.0;" x1="160" x2="160" y1="81.4883" y2="189.4199"/><line style="stroke:#181818;stroke-width:0.5;stroke-dasharray:5.0,5.0;" x1="254" x2="254" y1="81.4883" y2="189.4199"/><text fill="#000000" font-family="sans-serif" font-size="14" lengthAdjust="spacing" textLength="37" x="5" y="78.5352">Actor</text><ellipse cx="26.5" cy="13.5" fill="#E2E2F0" rx="8" ry="8" style="stroke:#181818;stroke-width:0.5;"/><path d="M26.5,21.5 L26.5,48.5 M13.5,29.5 L39.5,29.5 M26.5,48.5 L13.5,63.5 M26.5,48.5 L39.5,63.5 " fill="none" style="stroke:#181818;stroke-width:0.5;"/><text fill="#000000" font-family="sans-serif" font-size="14" lengthAdjust="spacing" textLength="37" x="5" y="201.9551">Actor</text><ellipse cx="26.5" cy="213.4082" fill="#E2E2F0" rx="8" ry="8" style="stroke:#181818;stroke-width:0.5;"/><path d="M26.5,221.4082 L26.5,248.4082 M13.5,229.4082 L39.5,229.4082 M26.5,248.4082 L13.5,263.4082 M26.5,248.4082 L39.5,263.4082 " fill="none" style="stroke:#181818;stroke-width:0.5;"/><rect fill="#E2E2F0" height="30.4883" rx="2.5" ry="2.5" style="stroke:#181818;stroke-width:0.5;" width="71" x="125" y="50"/><text fill="#000000" font-family="sans-serif" font-size="14" lengthAdjust="spacing" textLength="57" x="132" y="70.5352">Gateway</text><rect fill="#E2E2F0" height="30.4883" rx="2.5" ry="2.5" style="stroke:#181818;stroke-width:0.5;" width="71" x="125" y="188.4199"/><text fill="#000000" font-family="sans-serif" font-size="14" lengthAdjust="spacing" textLength="57" x="132" y="208.9551">Gateway</text><text fill="#000000" font-family="sans-serif" font-size="14" lengthAdjust="spacing" textLength="79" x="212" y="78.5352">Gateway DB</text><path d="M236.5,29 C236.5,19 254.5,19 254.5,19 C254.5,19 272.5,19 272.5,29 L272.5,55 C272.5,65 254.5,65 254.5,65 C254.5,65 236.5,65 236.5,55 L236.5,29 " fill="#E2E2F0" style="stroke:#181818;stroke-width:1.5;"/><path d="M236.5,29 C236.5,39 254.5,39 254.5,39 C254.5,39 272.5,39 272.5,29 " fill="none" style="stroke:#181818;stroke-width:1.5;"/><text fill="#000000" font-family="sans-serif" font-size="14" lengthAdjust="spacing" textLength="79" x="212" y="201.9551">Gateway DB</text><path d="M236.5,214.9082 C236.5,204.9082 254.5,204.9082 254.5,204.9082 C254.5,204.9082 272.5,204.9082 272.5,214.9082 L272.5,240.9082 C272.5,250.9082 254.5,250.9082 254.5,250.9082 C254.5,250.9082 236.5,250.9082 236.5,240.9082 L236.5,214.9082 " fill="#E2E2F0" style="stroke:#181818;stroke-width:1.5;"/><path d="M236.5,214.9082 C236.5,224.9082 254.5,224.9082 254.5,224.9082 C254.5,224.9082 272.5,224.9082 272.5,214.9082 " fill="none" style="stroke:#181818;stroke-width:1.5;"/><polygon fill="#181818" points="148.5,108.7988,158.5,112.7988,148.5,116.7988,152.5,112.7988" style="stroke:#181818;stroke-width:1.0;"/><line style="stroke:#181818;stroke-width:1.0;" x1="26.5" x2="154.5" y1="112.7988" y2="112.7988"/><text fill="#000000" font-family="sans-serif" font-size="13" lengthAdjust="spacing" textLength="110" x="33.5" y="108.0566">POST /v1/servers</text><polygon fill="#181818" points="242.5,138.1094,252.5,142.1094,242.5,146.1094,246.5,142.1094" style="stroke:#181818;stroke-width:1.0;"/><line style="stroke:#181818;stroke-width:1.0;" x1="160.5" x2="248.5" y1="142.1094" y2="142.1094"/><text fill="#000000" font-family="sans-serif" font-size="13" lengthAdjust="spacing" textLength="70" x="167.5" y="137.3672">StoreServer</text><polygon fill="#181818" points="37.5,167.4199,27.5,171.4199,37.5,175.4199,33.5,171.4199" style="stroke:#181818;stroke-width:1.0;"/><line style="stroke:#181818;stroke-width:1.0;" x1="31.5" x2="159.5" y1="171.4199" y2="171.4199"/><text fill="#000000" font-family="sans-serif" font-size="13" lengthAdjust="spacing" textLength="73" x="43.5" y="166.6777">server JSON</text><!--SRC=[IqmkoIzIW01793O891Ohb1Qd5d4L91QLP2Pd5YJcbIYu9vQabYTM8gj9B-TAIIn9J4eiJWM9AC6Kk3WfmLN4foHnSO4CKz2r0t8Lh1G2_8D35FJB3FM1WcMfHSLSG56m750fK3eOw9JKOB0KL0Qisqe1ebp1AzZV3m00]--></g></svg>